<svg width="966.81494140625px" height="125.61248779296875px" xmlns="http://www.w3.org/2000/svg" viewBox="-233.407470703125 12.193756103515625 966.81494140625 125.61248779296875" style="background: rgb(255, 255, 255);" preserveAspectRatio="xMidYMid"><defs><filter id="editing-hover" x="-100%" y="-100%" width="300%" height="300%"><feFlood flood-color="#ffffff" result="flood"></feFlood><feComposite operator="in" in2="SourceAlpha" in="flood" result="shadow"></feComposite><feOffset dx="-4" dy="-3.3" in="SourceGraphic" result="offset-1"></feOffset><feOffset dx="4" dy="3.3" in="shadow" result="offset-2"></feOffset><feMerge><feMergeNode in="offset-2"></feMergeNode><feMergeNode in="offset-1"></feMergeNode></feMerge></filter></defs><g filter="url(#editing-hover)"><g transform="translate(-99.79499530792236, 105.1150016784668)"><path d="M40.06-44.80L44.74-44.80L44.74 0L40.06 0L40.06-20.67L12.03-20.67L12.03 0L7.30 0L7.30-44.80L12.03-44.80L12.03-24.83L40.06-24.83L40.06-44.80ZM70.14-33.92L70.14-33.92Q76.74-33.92 80.26-30.62L80.26-30.62L80.26-30.62Q83.78-27.33 83.78-20.86L83.78-20.86L83.78 0L79.42 0L79.42-5.25L79.42-5.25Q77.89-2.62 74.91-1.15L74.91-1.15L74.91-1.15Q71.94 0.32 67.84 0.32L67.84 0.32L67.84 0.32Q62.21 0.32 58.88-2.37L58.88-2.37L58.88-2.37Q55.55-5.06 55.55-9.47L55.55-9.47L55.55-9.47Q55.55-13.76 58.66-16.38L58.66-16.38L58.66-16.38Q61.76-19.01 68.54-19.01L68.54-19.01L79.23-19.01L79.23-21.06L79.23-21.06Q79.23-25.41 76.80-27.68L76.80-27.68L76.80-27.68Q74.37-29.95 69.70-29.95L69.70-29.95L69.70-29.95Q66.50-29.95 63.55-28.90L63.55-28.90L63.55-28.90Q60.61-27.84 58.50-25.98L58.50-25.98L56.45-29.38L56.45-29.38Q59.01-31.55 62.59-32.74L62.59-32.74L62.59-32.74Q66.18-33.92 70.14-33.92L70.14-33.92ZM68.54-3.26L68.54-3.26Q72.38-3.26 75.14-5.02L75.14-5.02L75.14-5.02Q77.89-6.78 79.23-10.11L79.23-10.11L79.23-15.62L68.67-15.62L68.67-15.62Q60.03-15.62 60.03-9.60L60.03-9.60L60.03-9.60Q60.03-6.66 62.27-4.96L62.27-4.96L62.27-4.96Q64.51-3.26 68.54-3.26L68.54-3.26ZM113.47-33.92L113.47-33.92Q118.21-33.92 122.05-31.78L122.05-31.78L122.05-31.78Q125.89-29.63 128.06-25.73L128.06-25.73L128.06-25.73Q130.24-21.82 130.24-16.83L130.24-16.83L130.24-16.83Q130.24-11.78 128.06-7.87L128.06-7.87L128.06-7.87Q125.89-3.97 122.08-1.82L122.08-1.82L122.08-1.82Q118.27 0.32 113.47 0.32L113.47 0.32L113.47 0.32Q109.38 0.32 106.08-1.38L106.08-1.38L106.08-1.38Q102.78-3.07 100.67-6.34L100.67-6.34L100.67 12.42L96.13 12.42L96.13-33.66L100.48-33.66L100.48-27.01L100.48-27.01Q102.53-30.34 105.89-32.13L105.89-32.13L105.89-32.13Q109.25-33.92 113.47-33.92L113.47-33.92ZM113.15-3.71L113.15-3.71Q116.67-3.71 119.55-5.34L119.55-5.34L119.55-5.34Q122.43-6.98 124.06-9.98L124.06-9.98L124.06-9.98Q125.70-12.99 125.70-16.83L125.70-16.83L125.70-16.83Q125.70-20.67 124.06-23.65L124.06-23.65L124.06-23.65Q122.43-26.62 119.55-28.29L119.55-28.29L119.55-28.29Q116.67-29.95 113.15-29.95L113.15-29.95L113.15-29.95Q109.57-29.95 106.72-28.29L106.72-28.29L106.72-28.29Q103.87-26.62 102.24-23.65L102.24-23.65L102.24-23.65Q100.61-20.67 100.61-16.83L100.61-16.83L100.61-16.83Q100.61-12.99 102.24-9.98L102.24-9.98L102.24-9.98Q103.87-6.98 106.72-5.34L106.72-5.34L106.72-5.34Q109.57-3.71 113.15-3.71L113.15-3.71ZM156.86-33.92L156.86-33.92Q161.60-33.92 165.44-31.78L165.44-31.78L165.44-31.78Q169.28-29.63 171.46-25.73L171.46-25.73L171.46-25.73Q173.63-21.82 173.63-16.83L173.63-16.83L173.63-16.83Q173.63-11.78 171.46-7.87L171.46-7.87L171.46-7.87Q169.28-3.97 165.47-1.82L165.47-1.82L165.47-1.82Q161.66 0.32 156.86 0.32L156.86 0.32L156.86 0.32Q152.77 0.32 149.47-1.38L149.47-1.38L149.47-1.38Q146.18-3.07 144.06-6.34L144.06-6.34L144.06 12.42L139.52 12.42L139.52-33.66L143.87-33.66L143.87-27.01L143.87-27.01Q145.92-30.34 149.28-32.13L149.28-32.13L149.28-32.13Q152.64-33.92 156.86-33.92L156.86-33.92ZM156.54-3.71L156.54-3.71Q160.06-3.71 162.94-5.34L162.94-5.34L162.94-5.34Q165.82-6.98 167.46-9.98L167.46-9.98L167.46-9.98Q169.09-12.99 169.09-16.83L169.09-16.83L169.09-16.83Q169.09-20.67 167.46-23.65L167.46-23.65L167.46-23.65Q165.82-26.62 162.94-28.29L162.94-28.29L162.94-28.29Q160.06-29.95 156.54-29.95L156.54-29.95L156.54-29.95Q152.96-29.95 150.11-28.29L150.11-28.29L150.11-28.29Q147.26-26.62 145.63-23.65L145.63-23.65L145.63-23.65Q144-20.67 144-16.83L144-16.83L144-16.83Q144-12.99 145.63-9.98L145.63-9.98L145.63-9.98Q147.26-6.98 150.11-5.34L150.11-5.34L150.11-5.34Q152.96-3.71 156.54-3.71L156.54-3.71ZM206.72-33.66L211.20-33.66L194.37 4.03L194.37 4.03Q192.32 8.77 189.63 10.75L189.63 10.75L189.63 10.75Q186.94 12.74 183.17 12.74L183.17 12.74L183.17 12.74Q180.74 12.74 178.62 11.97L178.62 11.97L178.62 11.97Q176.51 11.20 174.98 9.66L174.98 9.66L177.09 6.27L177.09 6.27Q179.65 8.83 183.23 8.83L183.23 8.83L183.23 8.83Q185.54 8.83 187.17 7.55L187.17 7.55L187.17 7.55Q188.80 6.27 190.21 3.20L190.21 3.20L191.68-0.06L176.64-33.66L181.38-33.66L194.05-5.06L206.72-33.66ZM251.71-33.92L251.71-33.92Q256.45-33.92 260.29-31.78L260.29-31.78L260.29-31.78Q264.13-29.63 266.30-25.73L266.30-25.73L266.30-25.73Q268.48-21.82 268.48-16.83L268.48-16.83L268.48-16.83Q268.48-11.84 266.30-7.94L266.30-7.94L266.30-7.94Q264.13-4.03 260.29-1.86L260.29-1.86L260.29-1.86Q256.45 0.32 251.71 0.32L251.71 0.32L251.71 0.32Q247.49 0.32 244.13-1.47L244.13-1.47L244.13-1.47Q240.77-3.26 238.72-6.66L238.72-6.66L238.72 0L234.37 0L234.37-47.49L238.91-47.49L238.91-27.26L238.91-27.26Q241.02-30.53 244.32-32.22L244.32-32.22L244.32-32.22Q247.62-33.92 251.71-33.92L251.71-33.92ZM251.39-3.71L251.39-3.71Q254.91-3.71 257.79-5.34L257.79-5.34L257.79-5.34Q260.67-6.98 262.30-9.98L262.30-9.98L262.30-9.98Q263.94-12.99 263.94-16.83L263.94-16.83L263.94-16.83Q263.94-20.67 262.30-23.68L262.30-23.68L262.30-23.68Q260.67-26.69 257.79-28.32L257.79-28.32L257.79-28.32Q254.91-29.95 251.39-29.95L251.39-29.95L251.39-29.95Q247.81-29.95 244.96-28.32L244.96-28.32L244.96-28.32Q242.11-26.69 240.48-23.68L240.48-23.68L240.48-23.68Q238.85-20.67 238.85-16.83L238.85-16.83L238.85-16.83Q238.85-12.99 240.48-9.98L240.48-9.98L240.48-9.98Q242.11-6.98 244.96-5.34L244.96-5.34L244.96-5.34Q247.81-3.71 251.39-3.71L251.39-3.71ZM277.76 0L277.76-33.66L282.30-33.66L282.30 0L277.76 0ZM280.06-41.02L280.06-41.02Q278.66-41.02 277.70-41.98L277.70-41.98L277.70-41.98Q276.74-42.94 276.74-44.29L276.74-44.29L276.74-44.29Q276.74-45.57 277.70-46.53L277.70-46.53L277.70-46.53Q278.66-47.49 280.06-47.49L280.06-47.49L280.06-47.49Q281.47-47.49 282.43-46.56L282.43-46.56L282.43-46.56Q283.39-45.63 283.39-44.35L283.39-44.35L283.39-44.35Q283.39-42.94 282.43-41.98L282.43-41.98L282.43-41.98Q281.47-41.02 280.06-41.02L280.06-41.02ZM299.33-27.07L299.33-27.07Q300.93-30.46 304.10-32.19L304.10-32.19L304.10-32.19Q307.26-33.92 311.94-33.92L311.94-33.92L311.94-29.50L310.85-29.57L310.85-29.57Q305.54-29.57 302.53-26.30L302.53-26.30L302.53-26.30Q299.52-23.04 299.52-17.15L299.52-17.15L299.52 0L294.98 0L294.98-33.66L299.33-33.66L299.33-27.07ZM336.77-5.31L338.37-2.05L338.37-2.05Q337.09-0.90 335.20-0.29L335.20-0.29L335.20-0.29Q333.31 0.32 331.26 0.32L331.26 0.32L331.26 0.32Q326.53 0.32 323.97-2.24L323.97-2.24L323.97-2.24Q321.41-4.80 321.41-9.47L321.41-9.47L321.41-29.82L315.39-29.82L315.39-33.66L321.41-33.66L321.41-41.02L325.95-41.02L325.95-33.66L336.19-33.66L336.19-29.82L325.95-29.82L325.95-9.73L325.95-9.73Q325.95-6.72 327.46-5.15L327.46-5.15L327.46-5.15Q328.96-3.58 331.78-3.58L331.78-3.58L331.78-3.58Q333.18-3.58 334.50-4.03L334.50-4.03L334.50-4.03Q335.81-4.48 336.77-5.31L336.77-5.31ZM363.78-33.92L363.78-33.92Q370.11-33.92 373.86-30.24L373.86-30.24L373.86-30.24Q377.60-26.56 377.60-19.52L377.60-19.52L377.60 0L373.06 0L373.06-19.07L373.06-19.07Q373.06-24.32 370.43-27.07L370.43-27.07L370.43-27.07Q367.81-29.82 362.94-29.82L362.94-29.82L362.94-29.82Q357.50-29.82 354.34-26.59L354.34-26.59L354.34-26.59Q351.17-23.36 351.17-17.66L351.17-17.66L351.17 0L346.62 0L346.62-47.49L351.17-47.49L351.17-27.78L351.17-27.78Q353.02-30.72 356.29-32.32L356.29-32.32L356.29-32.32Q359.55-33.92 363.78-33.92L363.78-33.92ZM416.13-47.49L420.67-47.49L420.67 0L416.32 0L416.32-6.66L416.32-6.66Q414.27-3.26 410.91-1.47L410.91-1.47L410.91-1.47Q407.55 0.32 403.33 0.32L403.33 0.32L403.33 0.32Q398.59 0.32 394.75-1.86L394.75-1.86L394.75-1.86Q390.91-4.03 388.74-7.94L388.74-7.94L388.74-7.94Q386.56-11.84 386.56-16.83L386.56-16.83L386.56-16.83Q386.56-21.82 388.74-25.73L388.74-25.73L388.74-25.73Q390.91-29.63 394.75-31.78L394.75-31.78L394.75-31.78Q398.59-33.92 403.33-33.92L403.33-33.92L403.33-33.92Q407.42-33.92 410.72-32.22L410.72-32.22L410.72-32.22Q414.02-30.53 416.13-27.26L416.13-27.26L416.13-47.49ZM403.71-3.71L403.71-3.71Q407.23-3.71 410.08-5.34L410.08-5.34L410.08-5.34Q412.93-6.98 414.56-9.98L414.56-9.98L414.56-9.98Q416.19-12.99 416.19-16.83L416.19-16.83L416.19-16.83Q416.19-20.67 414.56-23.68L414.56-23.68L414.56-23.68Q412.93-26.69 410.08-28.32L410.08-28.32L410.08-28.32Q407.23-29.95 403.71-29.95L403.71-29.95L403.71-29.95Q400.13-29.95 397.28-28.32L397.28-28.32L397.28-28.32Q394.43-26.69 392.80-23.68L392.80-23.68L392.80-23.68Q391.17-20.67 391.17-16.83L391.17-16.83L391.17-16.83Q391.17-12.99 392.80-9.98L392.80-9.98L392.80-9.98Q394.43-6.98 397.28-5.34L397.28-5.34L397.28-5.34Q400.13-3.71 403.71-3.71L403.71-3.71ZM445.12-33.92L445.12-33.92Q451.71-33.92 455.23-30.62L455.23-30.62L455.23-30.62Q458.75-27.33 458.75-20.86L458.75-20.86L458.75 0L454.40 0L454.40-5.25L454.40-5.25Q452.86-2.62 449.89-1.15L449.89-1.15L449.89-1.15Q446.91 0.32 442.82 0.32L442.82 0.32L442.82 0.32Q437.18 0.32 433.86-2.37L433.86-2.37L433.86-2.37Q430.53-5.06 430.53-9.47L430.53-9.47L430.53-9.47Q430.53-13.76 433.63-16.38L433.63-16.38L433.63-16.38Q436.74-19.01 443.52-19.01L443.52-19.01L454.21-19.01L454.21-21.06L454.21-21.06Q454.21-25.41 451.78-27.68L451.78-27.68L451.78-27.68Q449.34-29.95 444.67-29.95L444.67-29.95L444.67-29.95Q441.47-29.95 438.53-28.90L438.53-28.90L438.53-28.90Q435.58-27.84 433.47-25.98L433.47-25.98L431.42-29.38L431.42-29.38Q433.98-31.55 437.57-32.74L437.57-32.74L437.57-32.74Q441.15-33.92 445.12-33.92L445.12-33.92ZM443.52-3.26L443.52-3.26Q447.36-3.26 450.11-5.02L450.11-5.02L450.11-5.02Q452.86-6.78 454.21-10.11L454.21-10.11L454.21-15.62L443.65-15.62L443.65-15.62Q435.01-15.62 435.01-9.60L435.01-9.60L435.01-9.60Q435.01-6.66 437.25-4.96L437.25-4.96L437.25-4.96Q439.49-3.26 443.52-3.26L443.52-3.26ZM494.91-33.66L499.39-33.66L482.56 4.03L482.56 4.03Q480.51 8.77 477.82 10.75L477.82 10.75L477.82 10.75Q475.14 12.74 471.36 12.74L471.36 12.74L471.36 12.74Q468.93 12.74 466.82 11.97L466.82 11.97L466.82 11.97Q464.70 11.20 463.17 9.66L463.17 9.66L465.28 6.27L465.28 6.27Q467.84 8.83 471.42 8.83L471.42 8.83L471.42 8.83Q473.73 8.83 475.36 7.55L475.36 7.55L475.36 7.55Q476.99 6.27 478.40 3.20L478.40 3.20L479.87-0.06L464.83-33.66L469.57-33.66L482.24-5.06L494.91-33.66ZM542.98 0.38L542.98 0.38Q536.32 0.38 530.98-2.56L530.98-2.56L530.98-2.56Q525.63-5.50 522.59-10.72L522.59-10.72L522.59-10.72Q519.55-15.94 519.55-22.40L519.55-22.40L519.55-22.40Q519.55-28.86 522.59-34.08L522.59-34.08L522.59-34.08Q525.63-39.30 531.01-42.24L531.01-42.24L531.01-42.24Q536.38-45.18 543.04-45.18L543.04-45.18L543.04-45.18Q548.03-45.18 552.26-43.52L552.26-43.52L552.26-43.52Q556.48-41.86 559.42-38.66L559.42-38.66L556.42-35.65L556.42-35.65Q551.17-40.96 543.17-40.96L543.17-40.96L543.17-40.96Q537.86-40.96 533.50-38.53L533.50-38.53L533.50-38.53Q529.15-36.10 526.69-31.87L526.69-31.87L526.69-31.87Q524.22-27.65 524.22-22.40L524.22-22.40L524.22-22.40Q524.22-17.15 526.69-12.93L526.69-12.93L526.69-12.93Q529.15-8.70 533.50-6.27L533.50-6.27L533.50-6.27Q537.86-3.84 543.17-3.84L543.17-3.84L543.17-3.84Q551.23-3.84 556.42-9.22L556.42-9.22L559.42-6.21L559.42-6.21Q556.48-3.01 552.22-1.31L552.22-1.31L552.22-1.31Q547.97 0.38 542.98 0.38L542.98 0.38ZM568.58 0L568.58-33.66L573.12-33.66L573.12 0L568.58 0ZM570.88-41.02L570.88-41.02Q569.47-41.02 568.51-41.98L568.51-41.98L568.51-41.98Q567.55-42.94 567.55-44.29L567.55-44.29L567.55-44.29Q567.55-45.57 568.51-46.53L568.51-46.53L568.51-46.53Q569.47-47.49 570.88-47.49L570.88-47.49L570.88-47.49Q572.29-47.49 573.25-46.56L573.25-46.56L573.25-46.56Q574.21-45.63 574.21-44.35L574.21-44.35L574.21-44.35Q574.21-42.94 573.25-41.98L573.25-41.98L573.25-41.98Q572.29-41.02 570.88-41.02L570.88-41.02ZM597.57-33.92L597.57-33.92Q604.16-33.92 607.68-30.62L607.68-30.62L607.68-30.62Q611.20-27.33 611.20-20.86L611.20-20.86L611.20 0L606.85 0L606.85-5.25L606.85-5.25Q605.31-2.62 602.34-1.15L602.34-1.15L602.34-1.15Q599.36 0.32 595.26 0.32L595.26 0.32L595.26 0.32Q589.63 0.32 586.30-2.37L586.30-2.37L586.30-2.37Q582.98-5.06 582.98-9.47L582.98-9.47L582.98-9.47Q582.98-13.76 586.08-16.38L586.08-16.38L586.08-16.38Q589.18-19.01 595.97-19.01L595.97-19.01L606.66-19.01L606.66-21.06L606.66-21.06Q606.66-25.41 604.22-27.68L604.22-27.68L604.22-27.68Q601.79-29.95 597.12-29.95L597.12-29.95L597.12-29.95Q593.92-29.95 590.98-28.90L590.98-28.90L590.98-28.90Q588.03-27.84 585.92-25.98L585.92-25.98L583.87-29.38L583.87-29.38Q586.43-31.55 590.02-32.74L590.02-32.74L590.02-32.74Q593.60-33.92 597.57-33.92L597.57-33.92ZM595.97-3.26L595.97-3.26Q599.81-3.26 602.56-5.02L602.56-5.02L602.56-5.02Q605.31-6.78 606.66-10.11L606.66-10.11L606.66-15.62L596.10-15.62L596.10-15.62Q587.46-15.62 587.46-9.60L587.46-9.60L587.46-9.60Q587.46-6.66 589.70-4.96L589.70-4.96L589.70-4.96Q591.94-3.26 595.97-3.26L595.97-3.26ZM627.90-27.07L627.90-27.07Q629.50-30.46 632.67-32.19L632.67-32.19L632.67-32.19Q635.84-33.92 640.51-33.92L640.51-33.92L640.51-29.50L639.42-29.57L639.42-29.57Q634.11-29.57 631.10-26.30L631.10-26.30L631.10-26.30Q628.10-23.04 628.10-17.15L628.10-17.15L628.10 0L623.55 0L623.55-33.66L627.90-33.66L627.90-27.07ZM660.99-33.92L660.99-33.92Q667.58-33.92 671.10-30.62L671.10-30.62L671.10-30.62Q674.62-27.33 674.62-20.86L674.62-20.86L674.62 0L670.27 0L670.27-5.25L670.27-5.25Q668.74-2.62 665.76-1.15L665.76-1.15L665.76-1.15Q662.78 0.32 658.69 0.32L658.69 0.32L658.69 0.32Q653.06 0.32 649.73-2.37L649.73-2.37L649.73-2.37Q646.40-5.06 646.40-9.47L646.40-9.47L646.40-9.47Q646.40-13.76 649.50-16.38L649.50-16.38L649.50-16.38Q652.61-19.01 659.39-19.01L659.39-19.01L670.08-19.01L670.08-21.06L670.08-21.06Q670.08-25.41 667.65-27.68L667.65-27.68L667.65-27.68Q665.22-29.95 660.54-29.95L660.54-29.95L660.54-29.95Q657.34-29.95 654.40-28.90L654.40-28.90L654.40-28.90Q651.46-27.84 649.34-25.98L649.34-25.98L647.30-29.38L647.30-29.38Q649.86-31.55 653.44-32.74L653.44-32.74L653.44-32.74Q657.02-33.92 660.99-33.92L660.99-33.92ZM659.39-3.26L659.39-3.26Q663.23-3.26 665.98-5.02L665.98-5.02L665.98-5.02Q668.74-6.78 670.08-10.11L670.08-10.11L670.08-15.62L659.52-15.62L659.52-15.62Q650.88-15.62 650.88-9.60L650.88-9.60L650.88-9.60Q650.88-6.66 653.12-4.96L653.12-4.96L653.12-4.96Q655.36-3.26 659.39-3.26L659.39-3.26ZM687.17-13.44L686.27-44.80L691.65-44.80L690.69-13.44L687.17-13.44ZM688.96 0.32L688.96 0.32Q687.55 0.32 686.56-0.67L686.56-0.67L686.56-0.67Q685.57-1.66 685.57-3.01L685.57-3.01L685.57-3.01Q685.57-4.42 686.53-5.34L686.53-5.34L686.53-5.34Q687.49-6.27 688.96-6.27L688.96-6.27L688.96-6.27Q690.37-6.27 691.33-5.34L691.33-5.34L691.33-5.34Q692.29-4.42 692.29-3.01L692.29-3.01L692.29-3.01Q692.29-1.66 691.33-0.67L691.33-0.67L691.33-0.67Q690.37 0.32 688.96 0.32L688.96 0.32Z" fill="#c32361"></path></g></g><style>text {
  font-size: 64px;
  font-family: Arial Black;
  dominant-baseline: central;
  text-anchor: middle;
}</style></svg>